<?xml version="1.0" encoding="UTF-8"?>
<!DOCTYPE svg PUBLIC "-//W3C//DTD SVG 1.1//EN" "http://www.w3.org/Graphics/SVG/1.1/DTD/svg11.dtd">
<!-- Creator: CorelDRAW 2017 -->
<svg xmlns="http://www.w3.org/2000/svg" xml:space="preserve" width="50.7998mm" height="33.8666mm" version="1.1" style="shape-rendering:geometricPrecision; text-rendering:geometricPrecision; image-rendering:optimizeQuality; fill-rule:evenodd; clip-rule:evenodd"
viewBox="0 0 5079.98 3386.66"
 xmlns:xlink="http://www.w3.org/1999/xlink">
 <defs>
  <style type="text/css">
   <![CDATA[
    .str0 {stroke:#00AFEF;stroke-width:35.28;stroke-miterlimit:10}
    .fil2 {fill:none;fill-rule:nonzero}
    .fil1 {fill:#373435;fill-rule:nonzero}
    .fil0 {fill:#00AFEF;fill-rule:nonzero}
   ]]>
  </style>
 </defs>
 <g id="Capa_x0020_1">
  <metadata id="CorelCorpID_0Corel-Layer"/>
  <g id="_2490837372768">
   <path class="fil0" d="M854.06 1055.25c-10.36,-2.57 -17.31,-3.99 -23.19,1.99 -5.36,5.47 -3.42,21.3 -3.42,21.3l124.1 791.43 43.15 -117.67c6.74,-18.42 24.28,-30.66 43.9,-30.66l288.62 -0.12c19.05,0 23.02,-20.91 23.02,-31.53 0,-306.76 -211.25,-564.14 -496.18,-634.74z"/>
   <path class="fil0" d="M704.38 1047.57c-3.19,-3.74 -9.78,-4.93 -14.71,-4.93 -357.72,0 -641.75,280.62 -647.27,637.03 -0.05,3.43 -0.08,6.87 -0.08,10.31 0,10.53 10.58,31.37 39.12,31.37l17.04 0.04 218.87 0.21 95.29 -344.68c7.24,-19.92 27,-32.5 48.08,-30.6 21.05,1.84 38.29,17.65 41.94,38.53l85.31 672.5c0,0 0.73,4.58 2.27,4.58 1.35,0 2.06,-4.53 2.06,-4.53l113.75 -973.45c0,0 4.67,-28.94 -1.67,-36.38z"/>
   <path class="fil0" d="M1307.78 1815.43l-25.94 -0.26 -210.59 0 -94.04 256.47c-7.32,19.98 -27.17,32.52 -48.47,30.44 -21.2,-2.09 -38.32,-18.28 -41.62,-39.31l-110.38 -703.96c0,0 -2.31,-12.52 -4.93,-12.53 -3.06,-0.02 -4.32,12.53 -4.32,12.53l-114.54 936.03c0,0 -3.32,28.95 4.23,38.16 10.31,12.57 22.57,10.95 39.1,10.95 301.88,0 555.93,-204.56 631.23,-482.6 4.11,-15.19 8.26,-45.92 -19.73,-45.92z"/>
   <path class="fil0" d="M445.19 1608.98c0,0 -2.17,-28.81 -4.5,-28.81 -2.76,0 -7.44,27 -7.44,27l-39.19 177.2c-6.71,18.5 -24.29,30.8 -43.94,30.8l-0.05 0 -243.77 -0.24 -13.35 -0.37c-34.06,0 -33.15,26.62 -29.82,39.53 52.54,203.33 200.41,368.28 393.1,444.36 25.88,10.22 75.59,22.33 75.59,-5.25l-1.69 -16.57 -84.94 -667.65z"/>
   <path class="fil1" d="M1557.19 1226.99c-45.97,0 -76.22,29.03 -76.22,71.38l0 25.4c0,42.34 30.25,70.17 76.22,70.17 45.97,0 76.22,-27.83 76.22,-70.17l0 -25.4c0,-42.35 -30.25,-71.38 -76.22,-71.38zm0 250.42c-42.34,0 -66.54,26.62 -66.54,70.17l0 482.71c0,44.76 24.2,71.38 66.54,71.38 42.34,0 66.54,-26.62 66.54,-71.38l0 -482.71c0,-43.55 -24.2,-70.17 -66.54,-70.17zm756.1 -7.25c-83.48,0 -148.8,29.03 -186.3,81.05l-2.42 0c-37.51,-52.02 -101.62,-81.05 -185.1,-81.05 -147.59,0 -234.7,90.73 -234.7,246.79l0 313.34c0,44.76 24.2,71.38 66.54,71.38 42.34,0 66.54,-26.62 66.54,-71.38l0 -303.66c0,-89.53 38.71,-136.71 111.3,-136.71 71.38,0 110.09,47.18 110.09,136.71l0 303.66c0,44.76 24.19,71.38 66.54,71.38 42.34,0 66.53,-26.62 66.53,-71.38l0 -303.66c0,-89.53 38.71,-136.71 111.3,-136.71 71.38,0 110.09,47.18 110.09,136.71l0 303.66c0,44.76 24.2,71.38 66.54,71.38 42.34,0 66.53,-26.62 66.53,-71.38l0 -313.34c0,-156.06 -85.89,-246.79 -233.48,-246.79zm569.81 0c-164.54,0 -263.74,100.41 -263.74,267.36l0 496.01c0,44.77 24.2,71.37 66.54,71.37 42.34,0 66.54,-26.6 66.54,-71.37l0 -186.31 2.41 0c36.3,39.93 88.32,61.71 152.44,61.71 147.6,0 239.54,-100.42 239.54,-260.11l0 -111.3c0,-166.95 -97.99,-267.36 -263.73,-267.36zm130.66 373.81c0,91.95 -47.19,145.18 -130.66,145.18 -82.27,0 -130.66,-53.23 -130.66,-145.18l0 -100.41c0,-99.2 45.97,-153.64 130.66,-153.64 84.68,0 130.66,54.44 130.66,153.64l0 100.41zm646 -366.56c-42.34,0 -66.54,26.62 -66.54,70.17l0 293.98c0,95.58 -44.76,147.59 -124.61,147.59 -79.84,0 -124.6,-52.01 -124.6,-147.59l0 -293.98c0,-43.55 -24.2,-70.17 -66.54,-70.17 -42.35,0 -66.54,26.62 -66.54,70.17l0 298.82c0,163.32 96.78,262.53 257.68,262.53 160.9,0 257.68,-99.21 257.68,-262.53l0 -298.82c0,-43.55 -24.19,-70.17 -66.53,-70.17zm215.33 -229.85c-42.33,0 -67.74,26.61 -67.74,71.37l0 711.36c0,44.76 25.41,71.38 67.74,71.38 41.14,0 65.33,-26.62 65.33,-71.38l0 -711.36c0,-44.76 -24.19,-71.37 -65.33,-71.37zm612.14 669c0,-122.18 -62.91,-180.25 -223.81,-188.72 -97.99,-4.84 -127.03,-22.99 -127.03,-65.34 0,-47.17 37.51,-73.79 104.04,-73.79 45.97,0 85.9,15.73 110.09,43.56 16.93,18.14 31.45,25.4 50.81,25.4 39.92,0 65.33,-25.4 65.33,-65.33 0,-16.93 -6.05,-30.24 -15.73,-42.34 -41.13,-50.81 -114.92,-79.84 -202.03,-79.84 -150.01,0 -243.16,72.58 -243.16,191.14 0,120.98 62.9,180.26 225.01,188.73 99.21,4.84 127.02,24.19 127.02,65.33 0,47.18 -41.12,75 -111.29,75 -56.86,0 -95.57,-16.94 -140.33,-61.69 -12.1,-12.11 -27.83,-20.57 -47.19,-20.57 -38.71,0 -64.11,26.61 -64.11,65.32 0,16.94 6.05,30.25 15.73,43.56 42.33,56.86 128.23,91.95 229.85,91.95 153.64,0 246.8,-72.59 246.8,-192.37zm295.16 -446.4c-160.9,0 -257.69,100.41 -257.69,267.36l0 102.83c0,168.16 98,268.58 262.53,268.58 101.62,0 174.21,-36.3 218.97,-104.05 7.26,-10.89 12.1,-24.2 12.1,-38.72 0,-39.92 -25.4,-65.32 -65.33,-65.32 -21.78,0 -41.13,10.89 -53.23,27.83 -26.62,38.7 -64.12,60.48 -112.51,60.48 -82.27,0 -129.44,-53.23 -129.44,-151.22l315.75 0c39.92,0 64.11,-25.41 64.11,-66.54l0 -33.87c0,-165.74 -94.35,-267.36 -255.26,-267.36zm0 119.76c75,0 124.61,50.81 124.61,136.71l-249.21 0c0,-85.9 49.59,-136.71 124.6,-136.71z"/>
   <path class="fil0" d="M3415.48 2168.36l0 138.33c0,7.87 -4.42,12.54 -11.8,12.54 -7.38,0 -12.06,-4.67 -12.06,-12.54l0 -100.91 -0.49 0 -43.81 81.46c-2.71,4.92 -6.64,7.38 -11.57,7.38 -5.17,0 -8.87,-2.46 -11.57,-7.38l-44.79 -81.46 -0.5 0 0 101.4c0,7.62 -4.42,12.05 -11.56,12.05 -7.15,0 -11.57,-4.43 -11.57,-12.05l0 -139.29c0,-8.63 4.68,-14.05 12.8,-14.05 5.66,0 9.84,2.71 12.8,8.37l54.14 100.66 54.16 -100.66c2.71,-4.92 6.64,-8.37 12.78,-8.37 8.38,0 13.04,5.66 13.04,14.52z"/>
   <path class="fil2 str0" d="M3415.48 2168.36l0 138.33c0,7.87 -4.42,12.54 -11.8,12.54 -7.38,0 -12.06,-4.67 -12.06,-12.54l0 -100.91 -0.49 0 -43.81 81.46c-2.71,4.92 -6.64,7.38 -11.57,7.38 -5.17,0 -8.87,-2.46 -11.57,-7.38l-44.79 -81.46 -0.5 0 0 101.4c0,7.62 -4.42,12.05 -11.56,12.05 -7.15,0 -11.57,-4.43 -11.57,-12.05l0 -139.29c0,-8.63 4.68,-14.05 12.8,-14.05 5.66,0 9.84,2.71 12.8,8.37l54.14 100.66 54.16 -100.66c2.71,-4.92 6.64,-8.37 12.78,-8.37 8.38,0 13.04,5.66 13.04,14.52z"/>
   <path class="fil0" d="M3593.48 2296.84c7.13,0 11.33,3.95 11.33,10.34 0,6.65 -4.2,10.58 -11.33,10.58l-86.64 0c-7.88,0 -12.55,-4.68 -12.55,-12.55l0 -137.33c0,-7.88 4.67,-12.56 12.55,-12.56l86.64 0c7.13,0 11.33,3.94 11.33,10.58 0,6.41 -4.2,10.34 -11.33,10.34l-75.32 0 0 48.73 64.25 0c7.13,0 11.32,3.94 11.32,10.59 0,6.65 -4.19,10.34 -11.32,10.34l-64.25 0 0 50.94 75.32 0z"/>
   <path class="fil2 str0" d="M3593.48 2296.84c7.13,0 11.33,3.95 11.33,10.34 0,6.65 -4.2,10.58 -11.33,10.58l-86.64 0c-7.88,0 -12.55,-4.68 -12.55,-12.55l0 -137.33c0,-7.88 4.67,-12.56 12.55,-12.56l86.64 0c7.13,0 11.33,3.94 11.33,10.58 0,6.41 -4.2,10.34 -11.33,10.34l-75.32 0 0 48.73 64.25 0c7.13,0 11.32,3.94 11.32,10.59 0,6.65 -4.19,10.34 -11.32,10.34l-64.25 0 0 50.94 75.32 0z"/>
   <path class="fil0" d="M3786.71 2300.29c1.48,1.96 2.22,4.43 2.22,7.14 0,7.13 -4.68,11.8 -11.82,11.8 -3.94,0 -7.38,-1.72 -9.85,-5.16l-41.59 -61.53 -42.58 62.02c-1.96,2.95 -4.92,4.67 -9.36,4.67 -6.88,0 -11.31,-4.67 -11.31,-11.56 0,-2.45 0.73,-4.67 1.97,-6.65l46.51 -65.71 -43.81 -62.27c-1.72,-2.46 -2.21,-4.68 -2.21,-7.38 0,-7.14 4.67,-11.82 11.81,-11.82 4.68,0 7.64,1.97 9.61,4.93l39.61 58.33 39.87 -58.33c1.98,-2.96 4.92,-4.93 9.35,-4.93 6.9,0 11.33,4.68 11.33,11.58 0,2.46 -0.74,4.67 -2.21,6.64l-43.81 62.27 46.27 65.96z"/>
   <path class="fil2 str0" d="M3786.71 2300.29c1.48,1.96 2.22,4.43 2.22,7.14 0,7.13 -4.68,11.8 -11.82,11.8 -3.94,0 -7.38,-1.72 -9.85,-5.16l-41.59 -61.53 -42.58 62.02c-1.96,2.95 -4.92,4.67 -9.36,4.67 -6.88,0 -11.31,-4.67 -11.31,-11.56 0,-2.45 0.73,-4.67 1.97,-6.65l46.51 -65.71 -43.81 -62.27c-1.72,-2.46 -2.21,-4.68 -2.21,-7.38 0,-7.14 4.67,-11.82 11.81,-11.82 4.68,0 7.64,1.97 9.61,4.93l39.61 58.33 39.87 -58.33c1.98,-2.96 4.92,-4.93 9.35,-4.93 6.9,0 11.33,4.68 11.33,11.58 0,2.46 -0.74,4.67 -2.21,6.64l-43.81 62.27 46.27 65.96z"/>
   <path class="fil0" d="M3881.01 2166.4l0 140.28c0,7.87 -4.43,12.55 -11.82,12.55 -7.62,0 -12.05,-4.68 -12.05,-12.55l0 -140.28c0,-7.88 4.43,-12.55 12.05,-12.55 7.39,0 11.82,4.67 11.82,12.55z"/>
   <path class="fil2 str0" d="M3881.01 2166.4l0 140.28c0,7.87 -4.43,12.55 -11.82,12.55 -7.62,0 -12.05,-4.68 -12.05,-12.55l0 -140.28c0,-7.88 4.43,-12.55 12.05,-12.55 7.39,0 11.82,4.67 11.82,12.55z"/>
   <path class="fil0" d="M4076.69 2279.62c-6.89,25.59 -28.06,41.1 -58.82,41.1 -39.63,0 -63.26,-24.86 -63.26,-65.72l0 -36.92c0,-40.86 23.63,-65.71 63.26,-65.71 29.54,0 50.22,14.77 57.11,37.16 0.47,1.97 0.72,3.21 0.72,4.19 0,6.89 -4.43,11.56 -11.32,11.56 -4.68,0 -8.86,-2.71 -10.57,-6.89 -6.65,-16.49 -19.21,-25.11 -36.69,-25.11 -24.6,0 -38.64,17 -38.64,46.03l0 34.46c0,29.04 14.04,46.02 38.64,46.02 18.96,0 32.01,-10.58 37.66,-27.81 1.73,-5.17 5.67,-8.12 10.84,-8.12 6.89,0 11.57,4.68 11.57,11.81 0,1.72 -0.25,2.71 -0.5,3.95z"/>
   <path class="fil2 str0" d="M4076.69 2279.62c-6.89,25.59 -28.06,41.1 -58.82,41.1 -39.63,0 -63.26,-24.86 -63.26,-65.72l0 -36.92c0,-40.86 23.63,-65.71 63.26,-65.71 29.54,0 50.22,14.77 57.11,37.16 0.47,1.97 0.72,3.21 0.72,4.19 0,6.89 -4.43,11.56 -11.32,11.56 -4.68,0 -8.86,-2.71 -10.57,-6.89 -6.65,-16.49 -19.21,-25.11 -36.69,-25.11 -24.6,0 -38.64,17 -38.64,46.03l0 34.46c0,29.04 14.04,46.02 38.64,46.02 18.96,0 32.01,-10.58 37.66,-27.81 1.73,-5.17 5.67,-8.12 10.84,-8.12 6.89,0 11.57,4.68 11.57,11.81 0,1.72 -0.25,2.71 -0.5,3.95z"/>
   <path class="fil0" d="M4164.82 2219.06l0 34.95c0,29.04 15.02,45.79 40.87,45.79 25.6,0 40.61,-16.75 40.61,-45.79l0 -34.95c0,-29.03 -15.01,-45.77 -40.61,-45.77 -25.85,0 -40.87,16.74 -40.87,45.77zm105.36 -0.98l0 36.92c0,40.86 -24.38,65.72 -64.49,65.72 -40.37,0 -64.73,-24.86 -64.73,-65.72l0 -36.92c0,-40.86 24.36,-65.71 64.73,-65.71 40.11,0 64.49,24.85 64.49,65.71z"/>
   <path class="fil2 str0" d="M4164.82 2219.06l0 34.95c0,29.04 15.02,45.79 40.87,45.79 25.6,0 40.61,-16.75 40.61,-45.79l0 -34.95c0,-29.03 -15.01,-45.77 -40.61,-45.77 -25.85,0 -40.87,16.74 -40.87,45.77zm105.36 -0.98l0 36.92c0,40.86 -24.38,65.72 -64.49,65.72 -40.37,0 -64.73,-24.86 -64.73,-65.72l0 -36.92c0,-40.86 24.36,-65.71 64.73,-65.71 40.11,0 64.49,24.85 64.49,65.71z"/>
   <path class="fil0" d="M4553.51 2279.62c-6.89,25.59 -28.07,41.1 -58.82,41.1 -39.63,0 -63.26,-24.86 -63.26,-65.72l0 -36.92c0,-40.86 23.63,-65.71 63.26,-65.71 29.53,0 50.21,14.77 57.1,37.16 0.48,1.97 0.73,3.21 0.73,4.19 0,6.89 -4.43,11.56 -11.32,11.56 -4.68,0 -8.86,-2.71 -10.58,-6.89 -6.65,-16.49 -19.21,-25.11 -36.68,-25.11 -24.6,0 -38.65,17 -38.65,46.03l0 34.46c0,29.04 14.05,46.02 38.65,46.02 18.96,0 32,-10.58 37.66,-27.81 1.72,-5.17 5.67,-8.12 10.84,-8.12 6.89,0 11.56,4.68 11.56,11.81 0,1.72 -0.24,2.71 -0.49,3.95z"/>
   <path class="fil2 str0" d="M4553.51 2279.62c-6.89,25.59 -28.07,41.1 -58.82,41.1 -39.63,0 -63.26,-24.86 -63.26,-65.72l0 -36.92c0,-40.86 23.63,-65.71 63.26,-65.71 29.53,0 50.21,14.77 57.1,37.16 0.48,1.97 0.73,3.21 0.73,4.19 0,6.89 -4.43,11.56 -11.32,11.56 -4.68,0 -8.86,-2.71 -10.58,-6.89 -6.65,-16.49 -19.21,-25.11 -36.68,-25.11 -24.6,0 -38.65,17 -38.65,46.03l0 34.46c0,29.04 14.05,46.02 38.65,46.02 18.96,0 32,-10.58 37.66,-27.81 1.72,-5.17 5.67,-8.12 10.84,-8.12 6.89,0 11.56,4.68 11.56,11.81 0,1.72 -0.24,2.71 -0.49,3.95z"/>
   <path class="fil0" d="M4646.81 2166.4l0 140.28c0,7.87 -4.42,12.55 -11.81,12.55 -7.63,0 -12.06,-4.68 -12.06,-12.55l0 -140.28c0,-7.88 4.43,-12.55 12.06,-12.55 7.39,0 11.81,4.67 11.81,12.55z"/>
   <path class="fil2 str0" d="M4646.81 2166.4l0 140.28c0,7.87 -4.42,12.55 -11.81,12.55 -7.63,0 -12.06,-4.68 -12.06,-12.55l0 -140.28c0,-7.88 4.43,-12.55 12.06,-12.55 7.39,0 11.81,4.67 11.81,12.55z"/>
   <path class="fil0" d="M4820.1 2155.32c7.14,0 11.33,3.94 11.33,10.58 0,6.41 -4.19,10.35 -11.33,10.35l-38.64 0 0 130.44c0,7.87 -4.43,12.54 -11.82,12.54 -7.62,0 -12.06,-4.67 -12.06,-12.54l0 -130.44 -38.88 0c-6.89,0 -11.07,-3.94 -11.07,-10.35 0,-6.64 4.18,-10.58 11.07,-10.58l101.4 0z"/>
   <path class="fil2 str0" d="M4820.1 2155.32c7.14,0 11.33,3.94 11.33,10.58 0,6.41 -4.19,10.35 -11.33,10.35l-38.64 0 0 130.44c0,7.87 -4.43,12.54 -11.82,12.54 -7.62,0 -12.06,-4.67 -12.06,-12.54l0 -130.44 -38.88 0c-6.89,0 -11.07,-3.94 -11.07,-10.35 0,-6.64 4.18,-10.58 11.07,-10.58l101.4 0z"/>
   <path class="fil0" d="M4955.25 2306.69c0,7.86 -4.43,12.54 -12.05,12.54 -7.39,0 -11.81,-4.68 -11.81,-12.54l0 -56.61 -51.69 -77.04c-1.48,-2.22 -2.47,-4.68 -2.47,-7.38 0,-7.14 4.93,-11.82 12.07,-11.82 4.19,0 7.37,1.73 9.35,4.93l44.8 68.91 45.03 -68.91c2.47,-3.7 5.66,-4.93 9.36,-4.93 6.88,0 11.56,4.68 11.56,11.58 0,2.46 -0.73,4.43 -2.21,6.64l-51.94 76.79 0 57.84z"/>
   <path class="fil2 str0" d="M4955.25 2306.69c0,7.86 -4.43,12.54 -12.05,12.54 -7.39,0 -11.81,-4.68 -11.81,-12.54l0 -56.61 -51.69 -77.04c-1.48,-2.22 -2.47,-4.68 -2.47,-7.38 0,-7.14 4.93,-11.82 12.07,-11.82 4.19,0 7.37,1.73 9.35,4.93l44.8 68.91 45.03 -68.91c2.47,-3.7 5.66,-4.93 9.36,-4.93 6.88,0 11.56,4.68 11.56,11.58 0,2.46 -0.73,4.43 -2.21,6.64l-51.94 76.79 0 57.84z"/>
  </g>
 </g>
</svg>
